# xmcd CD database file
#
# Track frame offsets:
#	150
#	19259
#	38557
#	48939
#	63475
#	78396
#	89067
#	103355
#	114372
#	124866
#	138626
#	156017
#	169432
#	180829
#
# Disc length: 2684 seconds
#
# Revision: 0
# Processed by: cddbd v1.5.2PL0 Copyright (c) Steve Scherf et al.
# Submitted via: ACXtractor (MTCDDB.DLL V2003.07.15)
#
DISCID=bc0a7a0e
DTITLE=Caitlin - I Love You Still
DYEAR=2003
DGENRE=Country
TTITLE0=Three Leaf Shamrock
TTITLE1=Galway Shawl
TTITLE2=I Love you Still
TTITLE3=I Couldn't Leave you if I Tried
TTITLE4=The Spinning Wheel
TTITLE5=How I Love to be Alone with You
TTITLE6=Teenage Mothers
TTITLE7=I'll be all Smiles Tonight
TTITLE8=Any Town in Ireland would be Home
TTITLE9=Silver and Gold
TTITLE10=Rossiare Harbour
TTITLE11=Moonlight on the Shannon
TTITLE12=If I Had my Life to Live Over
TTITLE13=A Couple more Years
EXTD=ID3G:   2 YEAR: 2003
EXTT0=
EXTT1=
EXTT2=
EXTT3=
EXTT4=
EXTT5=
EXTT6=
EXTT7=
EXTT8=
EXTT9=
EXTT10=
EXTT11=
EXTT12=
EXTT13=
PLAYORDER=
